<svg width="24" height="24" viewBox="0 0 24 24" fill="none" xmlns="http://www.w3.org/2000/svg">
<path d="M7.01493 16V15.3608L9.41549 12.733C9.69722 12.4252 9.92923 12.1577 10.1115 11.9304C10.2938 11.7008 10.4288 11.4853 10.5163 11.2841C10.6063 11.0805 10.6513 10.8674 10.6513 10.6449C10.6513 10.3892 10.5897 10.1679 10.4666 9.98082C10.3459 9.7938 10.1802 9.64938 9.96947 9.54759C9.75877 9.44579 9.52203 9.39489 9.25924 9.39489C8.97989 9.39489 8.73604 9.45289 8.52771 9.56889C8.32174 9.68253 8.16194 9.84233 8.04831 10.0483C7.93704 10.2543 7.8814 10.4957 7.8814 10.7727H7.04333C7.04333 10.3466 7.14158 9.97254 7.33808 9.65057C7.53458 9.3286 7.80209 9.07765 8.14064 8.89773C8.48155 8.7178 8.86388 8.62784 9.28765 8.62784C9.71379 8.62784 10.0914 8.7178 10.4205 8.89773C10.7495 9.07765 11.0076 9.32031 11.1946 9.62571C11.3816 9.93111 11.4752 10.2708 11.4752 10.6449C11.4752 10.9124 11.4266 11.174 11.3296 11.4297C11.2349 11.683 11.0691 11.9659 10.8324 12.2784C10.598 12.5885 10.2725 12.9673 9.85583 13.4148L8.22231 15.1619V15.2188H11.603V16H7.01493ZM12.3429 14.5085V13.7841L15.5389 8.72727H16.0645V9.84943H15.7094L13.2946 13.6705V13.7273H17.5986V14.5085H12.3429ZM15.7662 16V14.2884V13.951V8.72727H16.6043V16H15.7662Z" fill="white"/>
<path d="M17.5615 21.1799C16.4775 22.2319 15.2815 22.0679 14.1415 21.5719C12.9295 21.0659 11.8215 21.0339 10.5415 21.5719C8.9475 22.2599 8.1015 22.0599 7.1415 21.1799C1.7215 15.6 2.5215 7.09998 8.6815 6.77999C10.1755 6.85999 11.2215 7.60598 12.1015 7.66798C13.4095 7.40198 14.6615 6.63999 16.0615 6.73999C17.7435 6.87599 19.0015 7.53998 19.8415 8.73398C16.3815 10.814 17.2015 15.374 20.3795 16.654C19.7435 18.324 18.9275 19.9739 17.5595 21.1939L17.5615 21.1799ZM11.9815 6.71999C11.8195 4.23999 13.8295 2.2 16.1415 2C16.4595 4.85999 13.5415 6.99999 11.9815 6.71999Z" fill="#1F2B2E"/>
</svg>
