<svg width="21" height="20" viewBox="0 0 21 20" fill="none" xmlns="http://www.w3.org/2000/svg">
<path d="M20.0998 10.225C20.0998 9.56665 20.0414 8.94165 19.9414 8.33331H10.5248V12.0916H15.9164C15.6748 13.325 14.9664 14.3666 13.9164 15.075V17.575H17.1331C19.0164 15.8333 20.0998 13.2666 20.0998 10.225Z" fill="#4285F4"/>
<path d="M10.525 20C13.225 20 15.4833 19.1 17.1333 17.575L13.9166 15.075C13.0166 15.675 11.875 16.0417 10.525 16.0417C7.91664 16.0417 5.70831 14.2833 4.91664 11.9083H1.59998V14.4833C3.24164 17.75 6.61664 20 10.525 20Z" fill="#34A853"/>
<path d="M4.91645 11.9083C4.70811 11.3083 4.59978 10.6667 4.59978 9.99999C4.59978 9.33333 4.71645 8.69166 4.91645 8.09166V5.51666H1.59978C0.916446 6.86666 0.52478 8.38333 0.52478 9.99999C0.52478 11.6167 0.916446 13.1333 1.59978 14.4833L4.91645 11.9083Z" fill="#FBBC05"/>
<path d="M10.525 3.95833C12 3.95833 13.3166 4.46667 14.3583 5.45834L17.2083 2.60833C15.4833 0.991668 13.225 0 10.525 0C6.61664 0 3.24164 2.25 1.59998 5.51667L4.91664 8.09167C5.70831 5.71667 7.91664 3.95833 10.525 3.95833Z" fill="#EA4335"/>
</svg>
