<svg width="20" height="24" viewBox="0 0 20 24" fill="none" xmlns="http://www.w3.org/2000/svg">
<path d="M9.81795 24C10.3966 24 10.9516 23.7701 11.3607 23.361C11.7699 22.9518 11.9998 22.3968 11.9998 21.8182H7.63613C7.63613 22.3968 7.866 22.9518 8.27517 23.361C8.68434 23.7701 9.2393 24 9.81795 24ZM1.09068 19.6364H18.5452C18.761 19.6363 18.9718 19.5723 19.1512 19.4524C19.3305 19.3326 19.4703 19.1622 19.5529 18.9629C19.6354 18.7636 19.657 18.5443 19.6149 18.3327C19.5729 18.1211 19.469 17.9267 19.3165 17.7742L17.4543 15.912V9.81818C17.4508 7.98382 16.7877 6.2119 15.586 4.82595C14.3843 3.44001 12.7242 2.53249 10.9089 2.26909V1.09091C10.9089 0.801582 10.7939 0.524105 10.5893 0.31952C10.3848 0.114935 10.1073 0 9.81795 0C9.52862 0 9.25115 0.114935 9.04656 0.31952C8.84198 0.524105 8.72704 0.801582 8.72704 1.09091V2.26909C6.91168 2.53249 5.25161 3.44001 4.04992 4.82595C2.84823 6.2119 2.18509 7.98382 2.18159 9.81818V15.912L0.319404 17.7742C0.166884 17.9267 0.063023 18.1211 0.0209493 18.3327C-0.0211244 18.5443 0.000478856 18.7636 0.083028 18.9629C0.165577 19.1622 0.305366 19.3326 0.484722 19.4524C0.664078 19.5723 0.874949 19.6363 1.09068 19.6364ZM4.04377 17.1349C4.24837 16.9304 4.36334 16.6529 4.3634 16.3636V9.81818C4.3634 8.37155 4.93808 6.98416 5.961 5.96124C6.98393 4.93831 8.37132 4.36364 9.81795 4.36364C11.2646 4.36364 12.652 4.93831 13.6749 5.96124C14.6978 6.98416 15.2725 8.37155 15.2725 9.81818V16.3636C15.2726 16.6529 15.3875 16.9304 15.5921 17.1349L15.9118 17.4545H3.72413L4.04377 17.1349Z" fill="#404040"/>
</svg>
